<svg id="Layer_1" data-name="Layer 1" xmlns="http://www.w3.org/2000/svg" viewBox="0 0 27.698 4.222"><text transform="translate(7.05 3.508)" font-size="3.219" fill="#fff" font-family="Giveny-Regular, Giveny">E<tspan x="1.78" y="0" letter-spacing="-0.025em">A</tspan><tspan x="4.008" y="0">D</tspan></text><polygon points="1.68 2.656 1.025 2.656 2.538 0.035 3.193 0.035 1.68 2.656" fill="#5f52a2"/><polygon points="3.222 0.035 2.567 0.035 4.08 2.656 4.735 2.656 3.222 0.035" fill="#7b5fa9"/><polygon points="2.568 1.481 2.89 0.91 4.43 3.515 4.108 4.086 2.568 1.481" fill="#5f52a2"/><polygon points="4.094 4.111 4.416 3.54 1.39 3.571 1.068 4.142 4.094 4.111" fill="#7b5fa9"/><polygon points="3.145 2.829 3.469 3.399 0.443 3.38 0.119 2.81 3.145 2.829" fill="#5f52a2"/><polygon points="0.105 2.786 0.429 3.355 1.959 0.744 1.634 0.174 0.105 2.786" fill="#7b5fa9"/><polygon points="2.464 1.609 2.765 2.129 3.065 2.65 2.464 2.65 1.863 2.65 2.164 2.129 2.464 1.609" fill="#7b5fa9"/><path d="M15.907,3.638V1.279h.9a1.088,1.088,0,0,1,.832.292,1.262,1.262,0,0,1,.274.888,1.257,1.257,0,0,1-.274.886,1.089,1.089,0,0,1-.832.293Zm.4-1.963v1.57h.5a.674.674,0,0,0,.53-.2.852.852,0,0,0,.178-.586.852.852,0,0,0-.178-.586.676.676,0,0,0-.53-.2Z" fill="#fff"/><path d="M18.568,2.262l1.09,0v.358l-1.09,0v.656H19.9v.361H18.168V1.281H19.9v.361H18.568Z" fill="#fff"/><path d="M21.059,3.638a1.425,1.425,0,0,1-.56-.094,1.257,1.257,0,0,1-.348-.219l.261-.256a.675.675,0,0,0,.236.146,1.068,1.068,0,0,0,.327.062h.048a.7.7,0,0,0,.257-.042.3.3,0,0,0,.153-.123.335.335,0,0,0,.046-.164.323.323,0,0,0-.046-.163.565.565,0,0,0-.452-.195,1.272,1.272,0,0,1-.527-.173.44.44,0,0,1-.168-.182.654.654,0,0,1-.057-.285.566.566,0,0,1,.261-.483.964.964,0,0,1,.554-.188,1.357,1.357,0,0,1,.518.079,1.042,1.042,0,0,1,.307.2l-.261.256a.629.629,0,0,0-.465-.175c-.219,0-.361.055-.424.164a.3.3,0,0,0-.047.153.213.213,0,0,0,.052.139.38.38,0,0,0,.155.1,1.11,1.11,0,0,0,.258.062,1.285,1.285,0,0,1,.549.2.569.569,0,0,1,.237.51.58.58,0,0,1-.257.468A.96.96,0,0,1,21.059,3.638Z" fill="#fff"/><path d="M22.175,1.279H22.6V3.638h-.423Z" fill="#fff"/><path d="M23.187,3.3a1.134,1.134,0,0,1-.338-.839A1.16,1.16,0,0,1,24.033,1.28a1.3,1.3,0,0,1,.837.283l-.265.289a.953.953,0,0,0-.564-.179.784.784,0,0,0-.579.22.755.755,0,0,0-.218.558.787.787,0,0,0,.222.577.772.772,0,0,0,.571.215.98.98,0,0,0,.254-.029.6.6,0,0,0,.2-.1V2.621l-.425,0V2.262h.821V3.336a1.291,1.291,0,0,1-.859.3A1.161,1.161,0,0,1,23.187,3.3Z" fill="#fff"/><path d="M25.539,2.047V3.638h-.4V1.28h.1l1.614,1.606V1.28h.4V3.638h-.112Z" fill="#fff"/><line x1="14.518" y1="1.06" x2="14.518" y2="3.857" fill="none" stroke="#fff" stroke-miterlimit="10" stroke-width="0.25"/></svg>