<svg id="Layer_1" data-name="Layer 1" xmlns="http://www.w3.org/2000/svg" viewBox="0 0 27.815 5.296"><text transform="translate(7.166 3.87)" font-size="3.219" fill="#fff" font-family="Giveny-Regular, Giveny">E<tspan x="1.78" y="0" letter-spacing="-0.025em">A</tspan><tspan x="4.008" y="0">D</tspan></text><polygon points="1.797 3.019 1.141 3.019 2.654 0.398 3.31 0.398 1.797 3.019" fill="#5f52a2"/><polygon points="3.338 0.398 2.683 0.398 4.196 3.019 4.851 3.019 3.338 0.398" fill="#7b5fa9"/><polygon points="2.685 1.843 3.006 1.272 4.546 3.877 4.225 4.448 2.685 1.843" fill="#5f52a2"/><polygon points="4.211 4.473 4.532 3.902 1.506 3.934 1.185 4.504 4.211 4.473" fill="#7b5fa9"/><polygon points="3.262 3.192 3.586 3.761 0.56 3.742 0.236 3.173 3.262 3.192" fill="#5f52a2"/><polygon points="0.221 3.148 0.546 3.718 2.075 1.106 1.751 0.537 0.221 3.148" fill="#7b5fa9"/><polygon points="2.58 1.971 2.881 2.492 3.182 3.013 2.58 3.013 1.979 3.013 2.28 2.492 2.58 1.971" fill="#7b5fa9"/><path d="M16.024,4V1.641h.9a1.084,1.084,0,0,1,.831.293,1.254,1.254,0,0,1,.274.888,1.254,1.254,0,0,1-.274.886A1.087,1.087,0,0,1,16.927,4Zm.4-1.963v1.57h.506a.673.673,0,0,0,.529-.2.854.854,0,0,0,.179-.586.852.852,0,0,0-.179-.586.673.673,0,0,0-.529-.2Z" fill="#fff"/><path d="M18.685,2.625l1.09,0v.359l-1.09,0v.656h1.328V4H18.284V1.644h1.733V2H18.685Z" fill="#fff"/><path d="M21.175,4a1.429,1.429,0,0,1-.56-.094,1.207,1.207,0,0,1-.347-.219l.26-.255a.685.685,0,0,0,.237.146,1.062,1.062,0,0,0,.326.061l.049,0A.724.724,0,0,0,21.4,3.6a.3.3,0,0,0,.152-.123.339.339,0,0,0,.047-.164.325.325,0,0,0-.047-.164.561.561,0,0,0-.451-.194,1.286,1.286,0,0,1-.528-.173A.443.443,0,0,1,20.4,2.6a.647.647,0,0,1-.056-.284.566.566,0,0,1,.261-.483.962.962,0,0,1,.553-.188,1.385,1.385,0,0,1,.519.078,1.038,1.038,0,0,1,.306.2l-.26.257A.627.627,0,0,0,21.259,2c-.219,0-.36.055-.424.163a.316.316,0,0,0-.047.153.221.221,0,0,0,.052.14.369.369,0,0,0,.155.1,1.073,1.073,0,0,0,.258.062,1.29,1.29,0,0,1,.55.2.57.57,0,0,1,.236.509.582.582,0,0,1-.257.469A.963.963,0,0,1,21.175,4Z" fill="#fff"/><path d="M22.291,1.641h.423V4h-.423Z" fill="#fff"/><path d="M23.3,3.663a1.133,1.133,0,0,1-.339-.84,1.161,1.161,0,0,1,1.185-1.18,1.3,1.3,0,0,1,.836.283l-.264.289a.949.949,0,0,0-.565-.179.786.786,0,0,0-.579.22.755.755,0,0,0-.218.557.792.792,0,0,0,.222.578.778.778,0,0,0,.571.215.978.978,0,0,0,.254-.03.591.591,0,0,0,.2-.1V2.983l-.424,0V2.625h.82V3.7a1.286,1.286,0,0,1-.858.3A1.158,1.158,0,0,1,23.3,3.663Z" fill="#fff"/><path d="M25.655,2.41V4H25.26V1.643h.1L26.97,3.249V1.643h.4V4h-.112Z" fill="#fff"/><line x1="14.634" y1="1.422" x2="14.634" y2="4.219" fill="none" stroke="#fff" stroke-miterlimit="10" stroke-width="0.25"/></svg>