<svg xmlns="http://www.w3.org/2000/svg" viewBox="0 0 32 32"><defs><style>.cls-1{fill:#38004d;}.cls-2{fill:#9f85ec;}</style></defs><title>Certificate</title><g id="Certificate"><path class="cls-1" d="M29,0H10a1,1,0,0,0,0,2H25.09A6,6,0,0,0,30,6.91v8.18A6,6,0,0,0,25.09,20H21.91a6,6,0,0,0-11.82,0H6.91A6,6,0,0,0,2,15.09V6.91A6,6,0,0,0,7,1,1,1,0,0,0,6,0H3A3,3,0,0,0,0,3V19a3,3,0,0,0,3,3h7.09A6,6,0,0,0,12,25.46V31a1,1,0,0,0,1.32.95l2.68-.9,2.68.9A1,1,0,0,0,20,31V25.46A6,6,0,0,0,21.91,22H29a3,3,0,0,0,3-3V3A3,3,0,0,0,29,0ZM27.14,2H29a1,1,0,0,1,1,1V4.86A4,4,0,0,1,27.14,2ZM3,2H4.86A4,4,0,0,1,2,4.86V3A1,1,0,0,1,3,2ZM2,19V17.14A4,4,0,0,1,4.86,20H3A1,1,0,0,1,2,19ZM18,29.61c-1.79-.59-1.91-.69-2.32-.56L14,29.61v-3a5.91,5.91,0,0,0,4,0ZM16,25a4,4,0,1,1,4-4A4,4,0,0,1,16,25Zm13-5H27.14A4,4,0,0,1,30,17.14V19A1,1,0,0,1,29,20Z"/><path class="cls-2" d="M21,8H11a1,1,0,0,1,0-2H21a1,1,0,0,1,0,2Z"/><path class="cls-2" d="M23,12H9a1,1,0,0,1,0-2H23a1,1,0,0,1,0,2Z"/></g></svg>