<svg xmlns="http://www.w3.org/2000/svg" viewBox="0 0 32 32"><defs><style>.cls-1{fill:#38004d;}.cls-2{fill:#9f85ec;}</style></defs><title>Graduation</title><g id="Graduation"><path class="cls-1" d="M25,31a46.59,46.59,0,0,0-7-1,1,1,0,1,1,.1-2,39.94,39.94,0,0,1,7,1c1.05-.08,1.91-1.42,1.91-3s-.86-2.92-1.91-3a39.27,39.27,0,0,1-7,1A1,1,0,0,1,17,23.09,1,1,0,0,1,18,22,45.16,45.16,0,0,0,25,21c2.24,0,4,2.2,4,5S27.24,31,25,31Z"/><path class="cls-1" d="M14,28c-3.45.19-3.45.48-3.37.28a6.19,6.19,0,0,0,0-4.54c1.13.16,2.27.28,3.4.34A1,1,0,0,0,15,23.09,1,1,0,0,0,14.05,22a35.69,35.69,0,0,1-5.88-.81C5.52,20.21,3,22.67,3,26s2.5,5.8,5.17,4.77A35.69,35.69,0,0,1,14.05,30a1,1,0,0,0-.1-2ZM5,26c0-1.58.86-2.92,1.91-3,.68.16.76.13,1.12.46a3.83,3.83,0,0,1,0,5.07c-.37.34-.47.32-1.13.47C5.86,28.92,5,27.58,5,26Z"/><path class="cls-1" d="M25,31a3.22,3.22,0,0,1-1.37-.3,1,1,0,0,1,.84-1.82A1.24,1.24,0,0,0,25,29a1,1,0,0,1,0,2Z"/><path class="cls-1" d="M24.05,23.21a1,1,0,0,1-.42-1.91A3.22,3.22,0,0,1,25,21a1,1,0,0,1,0,2C24.56,23,24.43,23.21,24.05,23.21Z"/><path class="cls-2" d="M18,32c-.3,0-.28,0-2-.88l-1.55.77A1,1,0,0,1,13,31V23a2,2,0,0,1,2-2h2a2,2,0,0,1,2,2v8A1,1,0,0,1,18,32Zm-1-2.62V23H15v6.38l.55-.27C16.1,28.83,16.53,29.15,17,29.38Z"/><path class="cls-1" d="M28.38,5.08l-12-5a.92.92,0,0,0-.76,0l-4,1.66a1,1,0,0,0,.76,1.85L16,2.08,25.4,6,16,9.92,6.6,6l1.78-.74a1,1,0,0,0-.76-1.85l-4,1.67a1,1,0,0,0,0,1.84L8,8.75V14a1,1,0,0,0,.61.92C16.24,18.19,15.71,18,16,18s-.23.19,7.39-3.08A1,1,0,0,0,24,14V8.75l4.38-1.83A1,1,0,0,0,28.38,5.08ZM22,13.34l-6,2.57-6-2.57V9.58l5.62,2.34a1,1,0,0,0,.76,0L22,9.58Z"/><path class="cls-2" d="M23,19a1,1,0,0,1-1-1V8.83L15.72,7A1,1,0,0,1,16.28,5l7,2.08a1,1,0,0,1,.71,1V18A1,1,0,0,1,23,19Z"/></g></svg>