<svg id="Layer_1" data-name="Layer 1" xmlns="http://www.w3.org/2000/svg" viewBox="0 0 34.6 33.512"><polyline points="21.362 31.617 32.362 31.617 2.362 1.617 2.362 31.617 17.362 31.617" fill="none" stroke="#fff" stroke-linecap="round" stroke-linejoin="round" stroke-width="2"/><polygon points="18.362 26.617 7.362 26.617 7.362 15.617 18.362 26.617" fill="none" stroke="#fff" stroke-linecap="round" stroke-linejoin="round" stroke-width="2"/><path d="M12.862,3.117h0a2.122,2.122,0,0,1,3,0l15.5,15.5,1,4-4-1-15.5-15.5A2.122,2.122,0,0,1,12.862,3.117Z" fill="none" stroke="#fff" stroke-linecap="round" stroke-linejoin="round" stroke-width="2"/><line x1="6.934" y1="6.189" x2="5.934" y2="7.189" fill="none" stroke="#fff" stroke-linecap="round" stroke-linejoin="round" stroke-width="2"/><line x1="9.934" y1="9.189" x2="8.934" y2="10.189" fill="none" stroke="#fff" stroke-linecap="round" stroke-linejoin="round" stroke-width="2"/><line x1="12.934" y1="12.189" x2="11.934" y2="13.189" fill="none" stroke="#fff" stroke-linecap="round" stroke-linejoin="round" stroke-width="2"/><line x1="15.934" y1="15.189" x2="14.934" y2="16.189" fill="none" stroke="#fff" stroke-linecap="round" stroke-linejoin="round" stroke-width="2"/><line x1="18.934" y1="18.189" x2="17.934" y2="19.189" fill="none" stroke="#fff" stroke-linecap="round" stroke-linejoin="round" stroke-width="2"/><line x1="21.934" y1="21.189" x2="20.934" y2="22.189" fill="none" stroke="#fff" stroke-linecap="round" stroke-linejoin="round" stroke-width="2"/><line x1="24.934" y1="24.189" x2="23.934" y2="25.189" fill="none" stroke="#fff" stroke-linecap="round" stroke-linejoin="round" stroke-width="2"/><line x1="27.934" y1="27.189" x2="26.934" y2="28.189" fill="none" stroke="#fff" stroke-linecap="round" stroke-linejoin="round" stroke-width="2"/><line x1="15.362" y1="8.617" x2="18.362" y2="5.617" fill="none" stroke="#fff" stroke-linecap="round" stroke-linejoin="round" stroke-width="2"/></svg>