<svg id="Layer_1" data-name="Layer 1" xmlns="http://www.w3.org/2000/svg" xmlns:xlink="http://www.w3.org/1999/xlink" viewBox="0 0 69.24 61.65"><rect x="5.543" y="3.834" width="57.365" height="54.245" rx="4.572" fill="#fff" stroke="#af7cb6" stroke-miterlimit="10" stroke-width="0.5"/><path d="M25.244,16.652h-3a2,2,0,0,0-2,2v16a2,2,0,0,0,2,2h8" fill="none" stroke="#38134c" stroke-linecap="round" stroke-linejoin="round" stroke-width="2"/><path d="M40.244,36.652h8a2,2,0,0,0,2-2v-16a2,2,0,0,0-2-2h-19" fill="none" stroke="#38134c" stroke-linecap="round" stroke-linejoin="round" stroke-width="2"/><circle cx="35.244" cy="36.652" r="5" fill="none" stroke="#38134c" stroke-linecap="round" stroke-linejoin="round" stroke-width="2"/><polyline points="38.244 40.842 38.244 46.652 35.244 45.652 32.244 46.652 32.244 40.842" fill="none" stroke="#38134c" stroke-linecap="round" stroke-linejoin="round" stroke-width="2"/><path d="M20.244,21.652a5,5,0,0,0,5-5" fill="none" stroke="#38134c" stroke-linecap="round" stroke-linejoin="round" stroke-width="2"/><path d="M45.244,16.652a5,5,0,0,0,5,5" fill="none" stroke="#38134c" stroke-linecap="round" stroke-linejoin="round" stroke-width="2"/><path d="M20.244,31.652a5,5,0,0,1,5,5" fill="none" stroke="#38134c" stroke-linecap="round" stroke-linejoin="round" stroke-width="2"/><path d="M45.244,36.652a5,5,0,0,1,5-5" fill="none" stroke="#38134c" stroke-linecap="round" stroke-linejoin="round" stroke-width="2"/><line x1="30.244" y1="22.652" x2="40.244" y2="22.652" fill="none" stroke="#9584be" stroke-linecap="round" stroke-linejoin="round" stroke-width="2"/><line x1="28.244" y1="26.652" x2="42.244" y2="26.652" fill="none" stroke="#9584be" stroke-linecap="round" stroke-linejoin="round" stroke-width="2"/><image width="542" height="529" transform="translate(-30.793 -32.531) scale(0.24)" xlink:href="ICON1.png"/></svg>