<svg id="Layer_1" data-name="Layer 1" xmlns="http://www.w3.org/2000/svg" viewBox="0 0 34.6 33.512"><path d="M7.338,1.943h-3a2,2,0,0,0-2,2v16a2,2,0,0,0,2,2h8" fill="none" stroke="#fff" stroke-linecap="round" stroke-linejoin="round" stroke-width="2"/><path d="M22.338,21.943h8a2,2,0,0,0,2-2v-16a2,2,0,0,0-2-2h-19" fill="none" stroke="#fff" stroke-linecap="round" stroke-linejoin="round" stroke-width="2"/><circle cx="17.338" cy="21.943" r="5" fill="none" stroke="#fff" stroke-linecap="round" stroke-linejoin="round" stroke-width="2"/><polyline points="20.338 26.133 20.338 31.943 17.338 30.943 14.338 31.943 14.338 26.133" fill="none" stroke="#fff" stroke-linecap="round" stroke-linejoin="round" stroke-width="2"/><path d="M2.338,6.943a5,5,0,0,0,5-5" fill="none" stroke="#fff" stroke-linecap="round" stroke-linejoin="round" stroke-width="2"/><path d="M27.338,1.943a5,5,0,0,0,5,5" fill="none" stroke="#fff" stroke-linecap="round" stroke-linejoin="round" stroke-width="2"/><path d="M2.338,16.943a5,5,0,0,1,5,5" fill="none" stroke="#fff" stroke-linecap="round" stroke-linejoin="round" stroke-width="2"/><path d="M27.338,21.943a5,5,0,0,1,5-5" fill="none" stroke="#fff" stroke-linecap="round" stroke-linejoin="round" stroke-width="2"/><line x1="12.338" y1="7.943" x2="22.338" y2="7.943" fill="none" stroke="#fff" stroke-linecap="round" stroke-linejoin="round" stroke-width="2"/><line x1="10.338" y1="11.943" x2="24.338" y2="11.943" fill="none" stroke="#fff" stroke-linecap="round" stroke-linejoin="round" stroke-width="2"/></svg>