<svg xmlns="http://www.w3.org/2000/svg" viewBox="0 0 32 32"><defs><style>.cls-1{fill:#9f85ec;}.cls-2{fill:#38004d;}</style></defs><title>Plant</title><g id="Plant"><path class="cls-1" d="M16,11H12A5,5,0,0,1,7,6V4A1,1,0,0,1,8,3h4a5,5,0,0,1,5,5v2A1,1,0,0,1,16,11ZM9,5V6a3,3,0,0,0,3,3h3V8a3,3,0,0,0-3-3Z"/><path class="cls-1" d="M20,14H16a1,1,0,0,1-1-1V11a5,5,0,0,1,5-5h4a1,1,0,0,1,1,1V9A5,5,0,0,1,20,14Zm-3-2h3a3,3,0,0,0,3-3V8H20a3,3,0,0,0-3,3Z"/><path class="cls-2" d="M29,16H17V1a1,1,0,0,0-2,0V16H3a3,3,0,0,0-3,3V29a3,3,0,0,0,3,3H5a1,1,0,0,0,0-2H3a1,1,0,0,1-1-1V19a1,1,0,0,1,1-1H15v2.59L12.59,23H11a1,1,0,0,0,0,2h1v2a1,1,0,0,0,2,0V24.41l2.31-2.3,2.69.67V26a1,1,0,0,0,2,0V25h2a1,1,0,0,0,0-2H21V22a1,1,0,0,0-.76-1L17,20.22V18H29a1,1,0,0,1,1,1V29a1,1,0,0,1-1,1H9a1,1,0,0,0,0,2H29a3,3,0,0,0,3-3V19A3,3,0,0,0,29,16Z"/></g></svg>