<svg xmlns="http://www.w3.org/2000/svg" viewBox="0 0 32 32"><defs><style>.cls-1{fill:#9f85ec;}.cls-2{fill:#38004d;}</style></defs><title>Tools</title><g id="Tools"><path class="cls-1" d="M17,27H6a1,1,0,0,1-1-1V15a1,1,0,0,1,1.71-.71l11,11A1,1,0,0,1,17,27ZM7,25h7.59L7,17.41Z"/><path class="cls-2" d="M1.71.29A1,1,0,0,0,0,1V31a1,1,0,0,0,1,1H16a1,1,0,0,0,0-2H2V3.41L4.16,5.57l-.3.29A1,1,0,0,0,5.28,7.28L5.57,7,7.16,8.57l-.3.29a1,1,0,1,0,1.42,1.42L8.57,10l1.59,1.58-.3.29a1,1,0,0,0,1.42,1.42l.29-.29,1.59,1.58-.3.29a1,1,0,0,0,1.42,1.42l.29-.29,1.59,1.58-.3.29a1,1,0,0,0,1.42,1.42l.29-.29,1.59,1.58-.29.29a1,1,0,0,0,1.41,1.42l.29-.29,1.59,1.58-.29.29a1,1,0,0,0,1.41,1.42l.29-.29,1.59,1.58-.29.29a1,1,0,0,0,1.41,1.42l.29-.29,2,2H20a1,1,0,0,0,0,2H31a1,1,0,0,0,.71-1.71Z"/><path class="cls-2" d="M26.29,21.71c.27.26.1.17,4.47,1.26A1,1,0,0,0,32,21.76l-1-4c-.1-.41,1,.82-15.76-16a3.13,3.13,0,0,0-4.42,4.42Zm3.34-1.08-2.12-.53L15.41,8,17,6.41l12.1,12.1ZM12.21,3.21a1.11,1.11,0,0,1,1.58,0L15.59,5,14,6.59l-1.79-1.8A1.11,1.11,0,0,1,12.21,3.21Z"/></g></svg>